{
  "accessors": [
    {
      "bufferView": 3,
      "componentType": 5126,
      "count": 1590,
      "max": [
        25.080602645874023,
        36.98689270019531,
        103.89884185791016
      ],
      "min": [
        -11.452345848083496,
        -25.980501174926758,
        -0.7930139303207397
      ],
      "type": "VEC3"
    },
    {
      "bufferView": 3,
      "byteOffset": 19080,
      "componentType": 5126,
      "count": 1590,
      "max": [
        0.9972730875015259,
        0.9613785743713379,
        0.9870131611824036
      ],
      "min": [
        -0.998376190662384,
        -0.9995439052581787,
        -0.999944806098938
      ],
      "type": "VEC3"
    },
    {
      "bufferView": 2,
      "componentType": 5126,
      "count": 1590,
      "max": [
        1.0,
        1.8721799850463867
      ],
      "min": [
        0.0,
        -0.7202399969100952
      ],
      "type": "VEC2"
    },
    {
      "bufferView": 1,
      "componentType": 5125,
      "count": 2376,
      "type": "SCALAR"
    },
    {
      "bufferView": 5,
      "componentType": 5126,
      "count": 17,
      "max": [
        1.0,
        0.014082666486501694,
        0.0002894377685151994,
        0.0,
        0.01094479113817215,
        1.0,
        0.021559078246355057,
        0.0,
        0.011110220104455948,
        0.0215354822576046,
        1.0,
        0.0,
        0.3178600072860718,
        0.0,
        0.6430000066757202,
        1.0
      ],
      "min": [
        -0.021431971341371536,
        -0.0008730546105653048,
        -0.006693059578537941,
        0.0,
        -0.005754391197115183,
        -0.010500669479370117,
        -0.021559294313192368,
        0.0,
        -0.00876911636441946,
        0.0,
        -0.018209829926490784,
        0.0,
        -0.9282100200653076,
        -1.6574699878692627,
        -0.40880000591278076,
        1.0
      ],
      "type": "MAT4"
    },
    {
      "bufferView": 0,
      "componentType": 5123,
      "count": 1590,
      "type": "VEC4"
    },
    {
      "bufferView": 4,
      "componentType": 5126,
      "count": 1590,
      "max": [
        1.0,
        0.46810182929039,
        0.2264648824930191,
        0.13185450434684753
      ],
      "min": [
        0.3648792505264282,
        0.0,
        0.0,
        0.0
      ],
      "type": "VEC4"
    },
    {
      "bufferView": 6,
      "componentType": 5126,
      "count": 1,
      "max": [
        0.033330000936985016
      ],
      "min": [
        0.033330000936985016
      ],
      "type": "SCALAR"
    },
    {
      "bufferView": 7,
      "componentType": 5126,
      "count": 1,
      "max": [
        0.7069616317749023,
        -0.01432537566870451,
        0.01432537566870451,
        0.7069616317749023
      ],
      "min": [
        0.7069616317749023,
        -0.01432537566870451,
        0.01432537566870451,
        0.7069616317749023
      ],
      "type": "VEC4"
    },
    {
      "bufferView": 6,
      "byteOffset": 4,
      "componentType": 5126,
      "count": 1,
      "max": [
        0.033330000936985016
      ],
      "min": [
        0.033330000936985016
      ],
      "type": "SCALAR"
    },
    {
      "bufferView": 7,
      "byteOffset": 16,
      "componentType": 5126,
      "count": 1,
      "max": [
        0.4031871259212494,
        0.7451401948928833,
        -0.5284039974212646,
        0.054730337113142014
      ],
      "min": [
        0.4031871259212494,
        0.7451401948928833,
        -0.5284039974212646,
        0.054730337113142014
      ],
      "type": "VEC4"
    },
    {
      "bufferView": 6,
      "byteOffset": 8,
      "componentType": 5126,
      "count": 140,
      "max": [
        4.666669845581055
      ],
      "min": [
        0.033330000936985016
      ],
      "type": "SCALAR"
    },
    {
      "bufferView": 7,
      "byteOffset": 32,
      "componentType": 5126,
      "count": 140,
      "max": [
        -0.05404871329665184,
        0.21119701862335205,
        0.22228427231311798,
        0.9871647953987122
      ],
      "min": [
        -0.3445310592651367,
        -0.004234034102410078,
        -0.18444912135601044,
        0.8889046907424927
      ],
      "type": "VEC4"
    },
    {
      "bufferView": 6,
      "byteOffset": 568,
      "componentType": 5126,
      "count": 134,
      "max": [
        4.666669845581055
      ],
      "min": [
        0.033330000936985016
      ],
      "type": "SCALAR"
    },
    {
      "bufferView": 7,
      "byteOffset": 2272,
      "componentType": 5126,
      "count": 134,
      "max": [
        -0.02668541856110096,
        0.9973729252815247,
        -0.0667109414935112,
        0.002519264118745923
      ],
      "min": [
        -0.34225189685821533,
        0.7637777328491211,
        -0.543731153011322,
        -0.06213698163628578
      ],
      "type": "VEC4"
    },
    {
      "bufferView": 6,
      "byteOffset": 1104,
      "componentType": 5126,
      "count": 1,
      "max": [
        0.033330000936985016
      ],
      "min": [
        0.033330000936985016
      ],
      "type": "SCALAR"
    },
    {
      "bufferView": 7,
      "byteOffset": 4416,
      "componentType": 5126,
      "count": 1,
      "max": [
        0.2533595561981201,
        0.0024604620411992073,
        -0.10005070269107819,
        0.9621812105178833
      ],
      "min": [
        0.2533595561981201,
        0.0024604620411992073,
        -0.10005070269107819,
        0.9621812105178833
      ],
      "type": "VEC4"
    },
    {
      "bufferView": 6,
      "byteOffset": 1108,
      "componentType": 5126,
      "count": 138,
      "max": [
        4.666669845581055
      ],
      "min": [
        0.033330000936985016
      ],
      "type": "SCALAR"
    },
    {
      "bufferView": 7,
      "byteOffset": 4432,
      "componentType": 5126,
      "count": 138,
      "max": [
        0.06954348832368851,
        0.019948184490203857,
        0.018869584426283836,
        0.9993106722831726
      ],
      "min": [
        -0.04131394624710083,
        -0.061612971127033234,
        -0.5213648676872253,
        0.8482626676559448
      ],
      "type": "VEC4"
    },
    {
      "bufferView": 6,
      "byteOffset": 1660,
      "componentType": 5126,
      "count": 139,
      "max": [
        4.666669845581055
      ],
      "min": [
        0.033330000936985016
      ],
      "type": "SCALAR"
    },
    {
      "bufferView": 7,
      "byteOffset": 6640,
      "componentType": 5126,
      "count": 139,
      "max": [
        0.6659196019172668,
        0.9819545745849609,
        0.06994543969631195,
        0.043070144951343536
      ],
      "min": [
        0.18440017104148865,
        0.7427407503128052,
        -0.10420876741409302,
        -1.2200671335449442e-05
      ],
      "type": "VEC4"
    },
    {
      "bufferView": 6,
      "byteOffset": 2216,
      "componentType": 5126,
      "count": 1,
      "max": [
        0.033330000936985016
      ],
      "min": [
        0.033330000936985016
      ],
      "type": "SCALAR"
    },
    {
      "bufferView": 7,
      "byteOffset": 8864,
      "componentType": 5126,
      "count": 1,
      "max": [
        0.09888894110918045,
        0.9917213320732117,
        0.08182752877473831,
        -0.0037433726247400045
      ],
      "min": [
        0.09888894110918045,
        0.9917213320732117,
        0.08182752877473831,
        -0.0037433726247400045
      ],
      "type": "VEC4"
    },
    {
      "bufferView": 6,
      "byteOffset": 2220,
      "componentType": 5126,
      "count": 140,
      "max": [
        4.666669845581055
      ],
      "min": [
        0.033330000936985016
      ],
      "type": "SCALAR"
    },
    {
      "bufferView": 7,
      "byteOffset": 8880,
      "componentType": 5126,
      "count": 140,
      "max": [
        0.027922147884964943,
        0.04853270947933197,
        0.47713765501976013,
        0.9993547797203064
      ],
      "min": [
        -0.07255241274833679,
        -0.014865618199110031,
        0.035247668623924255,
        0.87448650598526
      ],
      "type": "VEC4"
    },
    {
      "bufferView": 6,
      "byteOffset": 2780,
      "componentType": 5126,
      "count": 140,
      "max": [
        4.666669845581055
      ],
      "min": [
        0.033330000936985016
      ],
      "type": "SCALAR"
    },
    {
      "bufferView": 7,
      "byteOffset": 11120,
      "componentType": 5126,
      "count": 140,
      "max": [
        0.0005346760735847056,
        0.025468600913882256,
        0.7507203221321106,
        0.992782473564148
      ],
      "min": [
        -0.10106194019317627,
        -0.029327716678380966,
        0.11167454719543457,
        0.652454674243927
      ],
      "type": "VEC4"
    },
    {
      "bufferView": 6,
      "byteOffset": 3340,
      "componentType": 5126,
      "count": 1,
      "max": [
        0.033330000936985016
      ],
      "min": [
        0.033330000936985016
      ],
      "type": "SCALAR"
    },
    {
      "bufferView": 7,
      "byteOffset": 13360,
      "componentType": 5126,
      "count": 1,
      "max": [
        0.07245729863643646,
        0.9968975782394409,
        -0.02987014874815941,
        -0.007272624410688877
      ],
      "min": [
        0.07245729863643646,
        0.9968975782394409,
        -0.02987014874815941,
        -0.007272624410688877
      ],
      "type": "VEC4"
    },
    {
      "bufferView": 6,
      "byteOffset": 3344,
      "componentType": 5126,
      "count": 131,
      "max": [
        4.666669845581055
      ],
      "min": [
        0.033330000936985016
      ],
      "type": "SCALAR"
    },
    {
      "bufferView": 7,
      "byteOffset": 13376,
      "componentType": 5126,
      "count": 131,
      "max": [
        -0.016796128824353218,
        0.07076769322156906,
        0.4960096478462219,
        0.9975991249084473
      ],
      "min": [
        -0.22820937633514404,
        -0.001849484397098422,
        0.06180190294981003,
        0.8347957134246826
      ],
      "type": "VEC4"
    },
    {
      "bufferView": 6,
      "byteOffset": 3868,
      "componentType": 5126,
      "count": 91,
      "max": [
        4.666669845581055
      ],
      "min": [
        0.033330000936985016
      ],
      "type": "SCALAR"
    },
    {
      "bufferView": 7,
      "byteOffset": 15472,
      "componentType": 5126,
      "count": 91,
      "max": [
        -0.042014140635728836,
        0.12907741963863373,
        0.644730806350708,
        0.9912331700325012
      ],
      "min": [
        -0.21186499297618866,
        -0.024134214967489243,
        0.1240374743938446,
        0.7230309844017029
      ],
      "type": "VEC4"
    },
    {
      "bufferView": 6,
      "byteOffset": 4232,
      "componentType": 5126,
      "count": 1,
      "max": [
        0.033330000936985016
      ],
      "min": [
        0.033330000936985016
      ],
      "type": "SCALAR"
    },
    {
      "bufferView": 7,
      "byteOffset": 16928,
      "componentType": 5126,
      "count": 1,
      "max": [
        0.09690549224615097,
        0.9889585971832275,
        -0.11197412759065628,
        -0.005660048220306635
      ],
      "min": [
        0.09690549224615097,
        0.9889585971832275,
        -0.11197412759065628,
        -0.005660048220306635
      ],
      "type": "VEC4"
    },
    {
      "bufferView": 6,
      "byteOffset": 4236,
      "componentType": 5126,
      "count": 131,
      "max": [
        4.666669845581055
      ],
      "min": [
        0.033330000936985016
      ],
      "type": "SCALAR"
    },
    {
      "bufferView": 7,
      "byteOffset": 16944,
      "componentType": 5126,
      "count": 131,
      "max": [
        -0.017110781744122505,
        0.08678916096687317,
        0.451547235250473,
        0.9996637105941772
      ],
      "min": [
        -0.13364118337631226,
        -0.00018507846107240766,
        0.019484039396047592,
        0.8779066205024719
      ],
      "type": "VEC4"
    },
    {
      "bufferView": 6,
      "byteOffset": 4760,
      "componentType": 5126,
      "count": 140,
      "max": [
        4.666669845581055
      ],
      "min": [
        0.033330000936985016
      ],
      "type": "SCALAR"
    },
    {
      "bufferView": 7,
      "byteOffset": 19040,
      "componentType": 5126,
      "count": 140,
      "max": [
        -0.08377108722925186,
        0.08279898762702942,
        0.6580962538719177,
        0.9890837669372559
      ],
      "min": [
        -0.23456834256649017,
        0.022306084632873535,
        0.10581230372190475,
        0.7107661962509155
      ],
      "type": "VEC4"
    }
  ],
  "animations": [
    {
      "channels": [
        {
          "sampler": 0,
          "target": {
            "node": 4,
            "path": "rotation"
          }
        },
        {
          "sampler": 1,
          "target": {
            "node": 5,
            "path": "rotation"
          }
        },
        {
          "sampler": 2,
          "target": {
            "node": 6,
            "path": "rotation"
          }
        },
        {
          "sampler": 3,
          "target": {
            "node": 7,
            "path": "rotation"
          }
        },
        {
          "sampler": 4,
          "target": {
            "node": 8,
            "path": "rotation"
          }
        },
        {
          "sampler": 5,
          "target": {
            "node": 9,
            "path": "rotation"
          }
        },
        {
          "sampler": 6,
          "target": {
            "node": 10,
            "path": "rotation"
          }
        },
        {
          "sampler": 7,
          "target": {
            "node": 11,
            "path": "rotation"
          }
        },
        {
          "sampler": 8,
          "target": {
            "node": 12,
            "path": "rotation"
          }
        },
        {
          "sampler": 9,
          "target": {
            "node": 13,
            "path": "rotation"
          }
        },
        {
          "sampler": 10,
          "target": {
            "node": 14,
            "path": "rotation"
          }
        },
        {
          "sampler": 11,
          "target": {
            "node": 15,
            "path": "rotation"
          }
        },
        {
          "sampler": 12,
          "target": {
            "node": 16,
            "path": "rotation"
          }
        },
        {
          "sampler": 13,
          "target": {
            "node": 17,
            "path": "rotation"
          }
        },
        {
          "sampler": 14,
          "target": {
            "node": 18,
            "path": "rotation"
          }
        },
        {
          "sampler": 15,
          "target": {
            "node": 19,
            "path": "rotation"
          }
        }
      ],
      "name": "ArmatureAction",
      "samplers": [
        {
          "input": 7,
          "interpolation": "LINEAR",
          "output": 8
        },
        {
          "input": 9,
          "interpolation": "LINEAR",
          "output": 10
        },
        {
          "input": 11,
          "interpolation": "LINEAR",
          "output": 12
        },
        {
          "input": 13,
          "interpolation": "LINEAR",
          "output": 14
        },
        {
          "input": 15,
          "interpolation": "LINEAR",
          "output": 16
        },
        {
          "input": 17,
          "interpolation": "LINEAR",
          "output": 18
        },
        {
          "input": 19,
          "interpolation": "LINEAR",
          "output": 20
        },
        {
          "input": 21,
          "interpolation": "LINEAR",
          "output": 22
        },
        {
          "input": 23,
          "interpolation": "LINEAR",
          "output": 24
        },
        {
          "input": 25,
          "interpolation": "LINEAR",
          "output": 26
        },
        {
          "input": 27,
          "interpolation": "LINEAR",
          "output": 28
        },
        {
          "input": 29,
          "interpolation": "LINEAR",
          "output": 30
        },
        {
          "input": 31,
          "interpolation": "LINEAR",
          "output": 32
        },
        {
          "input": 33,
          "interpolation": "LINEAR",
          "output": 34
        },
        {
          "input": 35,
          "interpolation": "LINEAR",
          "output": 36
        },
        {
          "input": 37,
          "interpolation": "LINEAR",
          "output": 38
        }
      ]
    }
  ],
  "asset": {
    "extras": {
      "author": "Dirk.z (https://sketchfab.com/138983)",
      "license": "CC-BY-4.0 (http://creativecommons.org/licenses/by/4.0/)",
      "source": "https://sketchfab.com/3d-models/hand-43a5001423ec4f81919d32dd0c289b82",
      "title": "Hand"
    },
    "generator": "Sketchfab-12.65.0",
    "version": "2.0"
  },
  "bufferViews": [
    {
      "buffer": 0,
      "byteLength": 12720,
      "byteStride": 8,
      "name": "shortBufferViews",
      "target": 34962
    },
    {
      "buffer": 0,
      "byteLength": 9504,
      "byteOffset": 12720,
      "name": "floatBufferViews",
      "target": 34963
    },
    {
      "buffer": 0,
      "byteLength": 12720,
      "byteOffset": 22224,
      "byteStride": 8,
      "name": "floatBufferViews",
      "target": 34962
    },
    {
      "buffer": 0,
      "byteLength": 38160,
      "byteOffset": 34944,
      "byteStride": 12,
      "name": "floatBufferViews",
      "target": 34962
    },
    {
      "buffer": 0,
      "byteLength": 25440,
      "byteOffset": 73104,
      "byteStride": 16,
      "name": "floatBufferViews",
      "target": 34962
    },
    {
      "buffer": 0,
      "byteLength": 1088,
      "byteOffset": 98544,
      "name": "floatBufferViews"
    },
    {
      "buffer": 0,
      "byteLength": 5320,
      "byteOffset": 99632,
      "name": "floatBufferViews"
    },
    {
      "buffer": 0,
      "byteLength": 21280,
      "byteOffset": 104952,
      "byteStride": 16,
      "name": "floatBufferViews"
    }
  ],
  "buffers": [
    {
      "byteLength": 126232,
      "uri": "scene.bin"
    }
  ],
  "materials": [
    {
      "doubleSided": true,
      "name": "Material___46",
      "pbrMetallicRoughness": {
        "baseColorFactor": [
          0.28085385260126755,
          0.2690503389529157,
          0.2778753591019933,
          1.0
        ],
        "metallicFactor": 0.0
      }
    }
  ],
  "meshes": [
    {
      "name": "Plane005",
      "primitives": [
        {
          "attributes": {
            "JOINTS_0": 5,
            "NORMAL": 1,
            "POSITION": 0,
            "TEXCOORD_0": 2,
            "WEIGHTS_0": 6
          },
          "indices": 3,
          "material": 0,
          "mode": 4
        }
      ]
    }
  ],
  "nodes": [
    {
      "children": [
        1
      ],
      "matrix": [
        1.0,
        0.0,
        0.0,
        0.0,
        0.0,
        2.220446049250313e-16,
        -1.0,
        0.0,
        0.0,
        1.0,
        2.220446049250313e-16,
        0.0,
        0.0,
        0.0,
        0.0,
        1.0
      ],
      "name": "Sketchfab_model"
    },
    {
      "children": [
        2
      ],
      "name": "Root"
    },
    {
      "children": [
        3,
        21,
        20
      ],
      "matrix": [
        2.85959,
        0.0,
        0.0,
        0.0,
        0.0,
        2.85959,
        0.0,
        0.0,
        0.0,
        0.0,
        2.85959,
        0.0,
        0.0,
        0.0,
        0.0,
        1.0
      ],
      "name": "Armature"
    },
    {
      "children": [
        4
      ],
      "name": "Armature_rootJoint"
    },
    {
      "children": [
        5,
        8,
        11,
        14,
        17
      ],
      "name": "palm_Armature",
      "rotation": [
        0.7069616913795471,
        -0.014325377531349659,
        0.014325377531349659,
        0.7069616913795471
      ],
      "scale": [
        1.0000008344650269,
        1.0000008344650269,
        1.0
      ],
      "translation": [
        -0.008469999767839909,
        0.0,
        0.06717000156641006
      ]
    },
    {
      "children": [
        6
      ],
      "name": "thumb_1_Armature",
      "rotation": [
        0.40318718552589417,
        0.7451402544975281,
        -0.5284040570259094,
        0.05473034456372261
      ],
      "scale": [
        1.0000066757202148,
        1.0000001192092896,
        0.9999954104423523
      ],
      "translation": [
        0.04749000072479248,
        0.7707800269126892,
        -0.15717999637126923
      ]
    },
    {
      "children": [
        7
      ],
      "name": "thumb_1.001_Armature",
      "rotation": [
        -0.21776889264583588,
        -0.004234034568071365,
        -0.1824873983860016,
        0.9587790966033936
      ],
      "scale": [
        1.0000038146972656,
        0.9999952912330627,
        1.0000025033950806
      ],
      "translation": [
        0.0,
        0.24119000136852264,
        0.0
      ]
    },
    {
      "name": "thumb_2_Armature",
      "rotation": [
        -0.02668541856110096,
        0.997360348701477,
        -0.0667186751961708,
        -0.010432432405650616
      ],
      "scale": [
        1.0000026226043701,
        0.9999954104423523,
        1.0000011920928955
      ],
      "translation": [
        0.0,
        0.32850000262260437,
        0.0
      ]
    },
    {
      "children": [
        9
      ],
      "name": "pink_1_Armature",
      "rotation": [
        0.2533595860004425,
        0.002460462274029851,
        -0.10005071759223938,
        0.9621813297271729
      ],
      "scale": [
        1.0000054836273193,
        1.0000007152557373,
        0.9999927878379822
      ],
      "translation": [
        -0.07378999888896942,
        1.114169955253601,
        0.19338999688625336
      ]
    },
    {
      "children": [
        10
      ],
      "name": "pink_1.001_Armature",
      "rotation": [
        -0.04131033271551132,
        0.0015516108833253384,
        0.018869586288928986,
        0.9989670515060425
      ],
      "scale": [
        0.9999977350234985,
        0.9999918937683105,
        1.0000003576278687
      ],
      "translation": [
        0.0,
        0.22197000682353973,
        0.0
      ]
    },
    {
      "name": "pink_2_Armature",
      "rotation": [
        0.1844027042388916,
        0.9819546937942505,
        -0.04196210578083992,
        -7.364659268205287e-06
      ],
      "scale": [
        0.9999973177909851,
        0.999999463558197,
        1.0000038146972656
      ],
      "translation": [
        0.0,
        0.2943899929523468,
        0.0
      ]
    },
    {
      "children": [
        12
      ],
      "name": "ring_1_Armature",
      "rotation": [
        0.09888894110918045,
        0.9917213320732117,
        0.08182752877473831,
        -0.0037433726247400045
      ],
      "scale": [
        0.9999943971633911,
        1.0000014305114746,
        0.9999991655349731
      ],
      "translation": [
        -0.07321999967098236,
        1.104490041732788,
        0.04588000103831291
      ]
    },
    {
      "children": [
        13
      ],
      "name": "ring_1.001_Armature",
      "rotation": [
        0.006904528010636568,
        1.4990319868957158e-05,
        0.035247668623924255,
        0.9993547797203064
      ],
      "scale": [
        1.000005841255188,
        1.000000238418579,
        0.999994158744812
      ],
      "translation": [
        0.0,
        0.27307000756263733,
        0.0
      ]
    },
    {
      "name": "ring_2_Armature",
      "rotation": [
        -0.027619825676083565,
        0.011090392246842384,
        0.16142667829990387,
        0.9864358901977539
      ],
      "scale": [
        1.0000063180923462,
        1.0000029802322388,
        0.9999986290931702
      ],
      "translation": [
        0.0,
        0.34860000014305115,
        0.0
      ]
    },
    {
      "children": [
        15
      ],
      "name": "middle_1_Armature",
      "rotation": [
        0.07245730608701706,
        0.9968976974487305,
        -0.029870152473449707,
        -0.007272625342011452
      ],
      "scale": [
        0.9999954700469971,
        1.0000048875808716,
        1.0000003576278687
      ],
      "translation": [
        -0.013330000452697277,
        1.101770043373108,
        -0.06881999969482422
      ]
    },
    {
      "children": [
        16
      ],
      "name": "middle_1.001_Armature",
      "rotation": [
        -0.03162146359682083,
        -0.0018494846299290657,
        0.061801910400390625,
        0.9975857734680176
      ],
      "scale": [
        0.9999935626983643,
        0.9999998807907104,
        0.9999977350234985
      ],
      "translation": [
        0.0,
        0.29175999760627747,
        0.0
      ]
    },
    {
      "name": "middle_2_Armature",
      "rotation": [
        -0.04332459717988968,
        0.01409627590328455,
        0.1240374892950058,
        0.9912311434745789
      ],
      "scale": [
        0.9999964833259583,
        1.0000073909759521,
        1.0000003576278687
      ],
      "translation": [
        0.0,
        0.40327998995780945,
        0.0
      ]
    },
    {
      "children": [
        18
      ],
      "name": "index_1_Armature",
      "rotation": [
        0.09690550714731216,
        0.9889587163925171,
        -0.11197414249181747,
        -0.005660048685967922
      ],
      "scale": [
        0.9999920129776001,
        0.9999991655349731,
        1.000002145767212
      ],
      "translation": [
        0.051350001245737076,
        1.079390048980713,
        -0.24500000476837158
      ]
    },
    {
      "children": [
        19
      ],
      "name": "index_1.001_Armature",
      "rotation": [
        -0.017110781744122505,
        -0.00018507846107240766,
        0.019484039396047592,
        0.9996637105941772
      ],
      "scale": [
        1.0000011920928955,
        1.0000056028366089,
        0.9999929666519165
      ],
      "translation": [
        0.0,
        0.28703999519348145,
        0.0
      ]
    },
    {
      "name": "index_2_Armature",
      "rotation": [
        -0.10209737718105316,
        0.022306086495518684,
        0.1059986874461174,
        0.9888594746589661
      ],
      "scale": [
        0.9999964237213135,
        0.9999988079071045,
        1.0000033378601074
      ],
      "translation": [
        0.0,
        0.35378000140190125,
        0.0
      ]
    },
    {
      "matrix": [
        0.017850000000000005,
        0.0023300000000000005,
        -0.011850000000000003,
        0.0,
        -0.012080000000000002,
        0.0034400000000000012,
        -0.017520000000000004,
        0.0,
        0.0,
        0.021150000000000006,
        0.004160000000000001,
        0.0,
        -0.0,
        -0.0,
        0.009850000000000003,
        1.0
      ],
      "name": "Plane005"
    },
    {
      "mesh": 0,
      "name": "Plane005_0",
      "skin": 0
    }
  ],
  "scene": 0,
  "scenes": [
    {
      "name": "Sketchfab_Scene",
      "nodes": [
        0
      ]
    }
  ],
  "skins": [
    {
      "inverseBindMatrices": 4,
      "joints": [
        3,
        4,
        5,
        6,
        7,
        8,
        9,
        10,
        11,
        12,
        13,
        14,
        15,
        16,
        17,
        18,
        19
      ],
      "skeleton": 3
    }
  ]
}
